<?xml version="1.0" standalone="no"?>
<!DOCTYPE svg PUBLIC "-//W3C//DTD SVG 20010904//EN"
 "http://www.w3.org/TR/2001/REC-SVG-20010904/DTD/svg10.dtd">
<svg version="1.0" xmlns="http://www.w3.org/2000/svg"
 width="316" height="316" viewBox="0 0 393.000000 393.000000"
 preserveAspectRatio="xMidYMid meet">
<metadata>
Created by potrace 1.11, written by Peter Selinger 2001-2013
</metadata>
<g transform="translate(0.000000,393.000000) scale(0.100000,-0.100000)"
fill="#000000" stroke="none">
<path d="M1790 3633 c-393 -21 -771 -110 -1130 -264 -164 -70 -335 -164 -334
-182 1 -14 356 -630 375 -651 4 -5 57 17 118 48 388 198 783 287 1216 273 384
-13 722 -101 1058 -275 63 -32 111 -52 116 -46 12 13 381 650 381 657 0 10
-203 116 -324 169 -145 65 -430 160 -578 192 -298 67 -618 95 -898 79z"/>
<path d="M1170 2624 c-300 -89 -610 -276 -879 -532 l-84 -80 36 -32 37 -32
110 101 c223 205 410 318 410 248 0 -8 -38 -71 -85 -141 -88 -131 -116 -196
-94 -222 24 -29 75 -15 236 65 390 195 865 338 1003 301 69 -19 51 -37 -125
-125 -171 -85 -308 -166 -470 -277 -152 -104 -141 -91 -117 -130 11 -18 45
-77 76 -130 l56 -97 66 30 c153 69 467 141 624 143 113 1 150 -15 150 -63 0
-73 -183 -255 -482 -479 -80 -60 -96 -76 -89 -90 30 -55 394 -679 401 -686 18
-18 414 488 582 743 48 74 112 182 142 240 132 259 115 361 -75 444 -162 72
-412 90 -790 56 -166 -15 -193 3 -122 82 71 79 304 170 671 263 212 54 229 60
260 88 65 62 -14 137 -176 169 -82 15 -441 6 -575 -15 -265 -42 -520 -119
-782 -235 -88 -38 -163 -67 -167 -65 -38 24 93 155 271 271 64 42 132 87 152
100 82 54 65 113 -33 112 -29 0 -91 -11 -138 -25z"/>
</g>
</svg>
